<?xml version="1.0" encoding="UTF-8" standalone="no"?>
<!DOCTYPE svg PUBLIC "-//W3C//DTD SVG 1.1//EN"
 "http://www.w3.org/Graphics/SVG/1.1/DTD/svg11.dtd">
<!-- Generated by graphviz version 2.43.0 (0)
 -->
<!-- Title: G Pages: 1 -->
<svg width="608pt" height="332pt"
 viewBox="0.00 0.00 608.20 332.00" xmlns="http://www.w3.org/2000/svg" xmlns:xlink="http://www.w3.org/1999/xlink">
<g id="graph0" class="graph" transform="scale(1 1) rotate(0) translate(4 328)">
<title>G</title>
<polygon fill="white" stroke="transparent" points="-4,4 -4,-328 604.2,-328 604.2,4 -4,4"/>
<!-- :app -->
<g id="node1" class="node">
<title>:app</title>
<ellipse fill="none" stroke="black" cx="302.04" cy="-306" rx="30.59" ry="18"/>
<text text-anchor="middle" x="302.04" y="-302.3" font-family="Times,serif" font-size="14.00">:app</text>
</g>
<!-- :core:widget -->
<g id="node2" class="node">
<title>:core:widget</title>
<ellipse fill="none" stroke="black" cx="302.04" cy="-234" rx="68.49" ry="18"/>
<text text-anchor="middle" x="302.04" y="-230.3" font-family="Times,serif" font-size="14.00">:core:widget</text>
</g>
<!-- :app&#45;&gt;:core:widget -->
<g id="edge1" class="edge">
<title>:app&#45;&gt;:core:widget</title>
<path fill="none" stroke="red" stroke-width="2" d="M302.04,-287.7C302.04,-279.98 302.04,-270.71 302.04,-262.11"/>
<polygon fill="red" stroke="red" stroke-width="2" points="305.54,-262.1 302.04,-252.1 298.54,-262.1 305.54,-262.1"/>
</g>
<!-- :core:common -->
<g id="node3" class="node">
<title>:core:common</title>
<ellipse fill="none" stroke="black" cx="289.04" cy="-18" rx="75.29" ry="18"/>
<text text-anchor="middle" x="289.04" y="-14.3" font-family="Times,serif" font-size="14.00">:core:common</text>
</g>
<!-- :app&#45;&gt;:core:common -->
<g id="edge2" class="edge">
<title>:app&#45;&gt;:core:common</title>
<path fill="none" stroke="black" d="M328.59,-296.82C413.66,-269.33 669.01,-176.11 582.04,-72 555.8,-40.58 449.87,-27.75 372.9,-22.54"/>
<polygon fill="black" stroke="black" points="372.93,-19.03 362.72,-21.88 372.48,-26.02 372.93,-19.03"/>
</g>
<!-- :core:domain -->
<g id="node4" class="node">
<title>:core:domain</title>
<ellipse fill="none" stroke="black" cx="190.04" cy="-90" rx="70.69" ry="18"/>
<text text-anchor="middle" x="190.04" y="-86.3" font-family="Times,serif" font-size="14.00">:core:domain</text>
</g>
<!-- :app&#45;&gt;:core:domain -->
<g id="edge3" class="edge">
<title>:app&#45;&gt;:core:domain</title>
<path fill="none" stroke="black" d="M278.2,-294.59C260.8,-285.75 238.06,-271.41 225.04,-252 197.57,-211.06 191.23,-152.27 190.01,-118.22"/>
<polygon fill="black" stroke="black" points="193.51,-118.01 189.78,-108.09 186.51,-118.17 193.51,-118.01"/>
</g>
<!-- :core:datastore -->
<g id="node5" class="node">
<title>:core:datastore</title>
<ellipse fill="none" stroke="black" cx="398.04" cy="-162" rx="81.49" ry="18"/>
<text text-anchor="middle" x="398.04" y="-158.3" font-family="Times,serif" font-size="14.00">:core:datastore</text>
</g>
<!-- :app&#45;&gt;:core:datastore -->
<g id="edge4" class="edge">
<title>:app&#45;&gt;:core:datastore</title>
<path fill="none" stroke="black" d="M325.9,-294.6C343.32,-285.77 366.06,-271.43 379.04,-252 391.28,-233.69 395.82,-208.92 397.42,-190.17"/>
<polygon fill="black" stroke="black" points="400.92,-190.38 398.05,-180.18 393.93,-189.94 400.92,-190.38"/>
</g>
<!-- :core:networking -->
<g id="node6" class="node">
<title>:core:networking</title>
<ellipse fill="none" stroke="black" cx="89.04" cy="-162" rx="89.08" ry="18"/>
<text text-anchor="middle" x="89.04" y="-158.3" font-family="Times,serif" font-size="14.00">:core:networking</text>
</g>
<!-- :app&#45;&gt;:core:networking -->
<g id="edge5" class="edge">
<title>:app&#45;&gt;:core:networking</title>
<path fill="none" stroke="black" d="M277.01,-295.18C254.04,-285.66 219.51,-270.03 192.04,-252 162.91,-232.88 133.17,-206.27 113.19,-187.13"/>
<polygon fill="black" stroke="black" points="115.39,-184.39 105.77,-179.94 110.51,-189.41 115.39,-184.39"/>
</g>
<!-- :core:widget&#45;&gt;:core:common -->
<g id="edge6" class="edge">
<title>:core:widget&#45;&gt;:core:common</title>
<path fill="none" stroke="black" d="M301,-215.85C298.75,-178.83 293.43,-91.18 290.71,-46.39"/>
<polygon fill="black" stroke="black" points="294.19,-46 290.09,-36.23 287.2,-46.43 294.19,-46"/>
</g>
<!-- :core:widget&#45;&gt;:core:domain -->
<g id="edge7" class="edge">
<title>:core:widget&#45;&gt;:core:domain</title>
<path fill="none" stroke="black" d="M288.75,-216.15C269.14,-191.28 232.3,-144.57 209.59,-115.79"/>
<polygon fill="black" stroke="black" points="212.25,-113.51 203.31,-107.82 206.76,-117.84 212.25,-113.51"/>
</g>
<!-- :core:widget&#45;&gt;:core:networking -->
<g id="edge8" class="edge">
<title>:core:widget&#45;&gt;:core:networking</title>
<path fill="none" stroke="red" stroke-width="2" d="M260.97,-219.5C227.46,-208.49 179.83,-192.84 143.2,-180.8"/>
<polygon fill="red" stroke="red" stroke-width="2" points="144.25,-177.46 133.66,-177.66 142.07,-184.11 144.25,-177.46"/>
</g>
<!-- :core:domain&#45;&gt;:core:common -->
<g id="edge9" class="edge">
<title>:core:domain&#45;&gt;:core:common</title>
<path fill="none" stroke="red" stroke-width="2" d="M213,-72.76C226.28,-63.38 243.17,-51.44 257.65,-41.19"/>
<polygon fill="red" stroke="red" stroke-width="2" points="259.72,-44.02 265.86,-35.39 255.68,-38.31 259.72,-44.02"/>
</g>
<!-- :core:datastore&#45;&gt;:core:common -->
<g id="edge10" class="edge">
<title>:core:datastore&#45;&gt;:core:common</title>
<path fill="none" stroke="black" d="M379.75,-144.18C369.32,-134.15 356.32,-120.9 346.04,-108 330,-87.87 314.42,-63.07 303.62,-44.77"/>
<polygon fill="black" stroke="black" points="306.63,-42.98 298.57,-36.1 300.58,-46.51 306.63,-42.98"/>
</g>
<!-- :core:datastore&#45;&gt;:core:domain -->
<g id="edge11" class="edge">
<title>:core:datastore&#45;&gt;:core:domain</title>
<path fill="none" stroke="black" d="M355.45,-146.67C322.2,-135.48 275.92,-119.9 240.76,-108.07"/>
<polygon fill="black" stroke="black" points="241.76,-104.71 231.16,-104.84 239.52,-111.35 241.76,-104.71"/>
</g>
<!-- :core:datastore&#45;proto -->
<g id="node7" class="node">
<title>:core:datastore&#45;proto</title>
<ellipse fill="none" stroke="black" cx="464.04" cy="-90" rx="108.58" ry="18"/>
<text text-anchor="middle" x="464.04" y="-86.3" font-family="Times,serif" font-size="14.00">:core:datastore&#45;proto</text>
</g>
<!-- :core:datastore&#45;&gt;:core:datastore&#45;proto -->
<g id="edge12" class="edge">
<title>:core:datastore&#45;&gt;:core:datastore&#45;proto</title>
<path fill="none" stroke="black" d="M414.02,-144.05C422.01,-135.58 431.83,-125.17 440.64,-115.82"/>
<polygon fill="black" stroke="black" points="443.44,-117.95 447.75,-108.28 438.35,-113.15 443.44,-117.95"/>
</g>
<!-- :core:networking&#45;&gt;:core:common -->
<g id="edge14" class="edge">
<title>:core:networking&#45;&gt;:core:common</title>
<path fill="none" stroke="black" d="M88.28,-143.9C88.36,-124.04 91.61,-91.5 110.04,-72 135.07,-45.53 172.63,-32.08 206.89,-25.33"/>
<polygon fill="black" stroke="black" points="207.7,-28.74 216.92,-23.52 206.46,-21.85 207.7,-28.74"/>
</g>
<!-- :core:networking&#45;&gt;:core:domain -->
<g id="edge13" class="edge">
<title>:core:networking&#45;&gt;:core:domain</title>
<path fill="none" stroke="red" stroke-width="2" d="M112.72,-144.59C126.37,-135.13 143.7,-123.12 158.49,-112.87"/>
<polygon fill="red" stroke="red" stroke-width="2" points="160.63,-115.64 166.86,-107.07 156.65,-109.89 160.63,-115.64"/>
</g>
</g>
</svg>
